<svg width="16" height="15" viewBox="0 0 16 15" fill="none" xmlns="http://www.w3.org/2000/svg">
<g id="Group">
<path id="Vector" d="M1.55701 12.3089C1.55701 11.4469 1.89942 10.6203 2.50891 10.0108C3.1184 9.40131 3.94505 9.0589 4.80701 9.0589H11.307C12.169 9.0589 12.9956 9.40131 13.6051 10.0108C14.2146 10.6203 14.557 11.4469 14.557 12.3089C14.557 12.7399 14.3858 13.1532 14.0811 13.4579C13.7763 13.7627 13.363 13.9339 12.932 13.9339H3.18201C2.75103 13.9339 2.3377 13.7627 2.03296 13.4579C1.72821 13.1532 1.55701 12.7399 1.55701 12.3089Z" stroke="#939191" stroke-width="1.5" stroke-linejoin="round"/>
<path id="Vector_2" d="M8.05701 5.8089C9.4032 5.8089 10.4945 4.71759 10.4945 3.3714C10.4945 2.0252 9.4032 0.933899 8.05701 0.933899C6.71081 0.933899 5.61951 2.0252 5.61951 3.3714C5.61951 4.71759 6.71081 5.8089 8.05701 5.8089Z" stroke="#939191" stroke-width="1.5"/>
</g>
</svg>
