<svg width="14" height="15" viewBox="0 0 14 15" fill="none" xmlns="http://www.w3.org/2000/svg">
<path id="Vector" d="M0.502441 14.3975V0.470337L1.54698 1.51487L2.59151 0.470337L3.63605 1.51487L4.68058 0.470337L5.72512 1.51487L6.76965 0.470337L7.81419 1.51487L8.85872 0.470337L9.90326 1.51487L10.9478 0.470337L11.9923 1.51487L13.0369 0.470337V14.3975L11.9923 13.3529L10.9478 14.3975L9.90326 13.3529L8.85872 14.3975L7.81419 13.3529L6.76965 14.3975L5.72512 13.3529L4.68058 14.3975L3.63605 13.3529L2.59151 14.3975L1.54698 13.3529L0.502441 14.3975ZM2.59151 10.9157H10.9478V9.52298H2.59151V10.9157ZM2.59151 8.13026H10.9478V6.73755H2.59151V8.13026ZM2.59151 5.34484H10.9478V3.95212H2.59151V5.34484ZM1.89516 12.378H11.6442V2.48977H1.89516V12.378Z" fill="#594EF1"/>
</svg>
