<svg width="16" height="15" viewBox="0 0 16 15" fill="none" xmlns="http://www.w3.org/2000/svg">
<path id="Vector" d="M14.8195 7.12571L8.21516 0.521319C7.95098 0.257144 7.58407 0.0957031 7.18047 0.0957031H2.04372C1.23652 0.0957031 0.57608 0.756142 0.57608 1.56335V6.70009C0.57608 7.10369 0.737521 7.47061 1.00903 7.74212L7.61342 14.3465C7.8776 14.6107 8.24451 14.7721 8.64811 14.7721C9.05171 14.7721 9.41862 14.6107 9.6828 14.3392L14.8195 9.20242C15.0911 8.93825 15.2525 8.57134 15.2525 8.16774C15.2525 7.76413 15.0837 7.38988 14.8195 7.12571ZM8.64811 13.3118L2.04372 6.70009V1.56335H7.18047V1.55601L13.7849 8.1604L8.64811 13.3118Z" fill="#939191"/>
</svg>
